<?xml version="1.0" standalone="no"?>
<!DOCTYPE svg PUBLIC "-//W3C//DTD SVG 20010904//EN"
 "http://www.w3.org/TR/2001/REC-SVG-20010904/DTD/svg10.dtd">
<svg version="1.0" xmlns="http://www.w3.org/2000/svg"
 width="2492.000000pt" height="870.000000pt" viewBox="0 0 2492.000000 870.000000"
 preserveAspectRatio="xMidYMid meet">

<g transform="translate(0.000000,870.000000) scale(0.100000,-0.100000)"
fill="#000000" stroke="none">
<path d="M2026 8685 c-3 -9 -6 -235 -6 -501 l0 -484 30 0 30 0 -2 498 -3 497
-21 3 c-13 2 -24 -4 -28 -13z"/>
<path d="M945 8341 c-3 -6 -3 -17 1 -23 19 -32 606 -798 611 -798 4 0 14 7 24
16 16 14 -3 42 -285 412 -292 383 -330 425 -351 393z"/>
<path d="M3047 8268 c-35 -46 -173 -226 -306 -401 -226 -296 -241 -320 -224
-332 10 -8 22 -13 26 -12 19 6 615 800 610 813 -12 32 -44 12 -106 -68z"/>
<path d="M1704 7955 c-6 -15 70 -282 85 -296 3 -4 16 -3 28 1 l22 9 -24 78
c-59 189 -70 218 -88 221 -9 2 -20 -4 -23 -13z"/>
<path d="M2354 7958 c-17 -27 -93 -283 -86 -289 4 -4 16 -9 26 -11 16 -3 25
17 63 140 25 79 42 150 39 158 -7 17 -32 19 -42 2z"/>
<path d="M1945 7423 c-54 -120 -98 -219 -99 -220 -1 -1 -110 -14 -244 -29
-133 -15 -242 -30 -241 -33 0 -3 81 -79 179 -168 l178 -163 -49 -237 c-26
-130 -47 -238 -46 -240 2 -1 98 52 215 118 l211 120 212 -121 c117 -66 213
-119 215 -117 1 1 -19 109 -46 239 l-50 237 58 54 c31 29 113 105 181 168 94
85 120 115 105 116 -56 8 -455 53 -462 53 -4 0 -52 99 -107 220 -55 121 -103
220 -106 220 -3 0 -50 -98 -104 -217z m194 -104 l79 -174 184 -21 c101 -12
190 -23 197 -25 6 -2 -53 -64 -133 -137 -120 -110 -145 -137 -141 -155 16 -71
74 -362 72 -364 -2 -1 -78 40 -170 92 -92 52 -171 95 -175 95 -4 0 -81 -42
-172 -94 -95 -53 -166 -88 -168 -81 -1 6 13 87 33 180 19 93 35 176 35 185 0
8 -40 51 -88 94 -147 133 -193 178 -189 183 3 2 90 14 195 26 l190 21 38 85
c83 188 125 274 129 269 3 -2 40 -83 84 -179z"/>
<path d="M2016 7315 c-108 -235 -94 -212 -140 -219 -22 -3 -88 -10 -146 -17
-58 -6 -111 -13 -118 -15 -7 -2 39 -51 103 -110 63 -58 115 -114 115 -123 -1
-9 -14 -79 -30 -156 -15 -77 -27 -141 -26 -143 2 -1 63 32 136 73 73 41 138
75 144 75 6 0 70 -34 141 -75 72 -40 131 -70 133 -65 2 4 -11 74 -28 154 -16
81 -30 148 -30 149 0 2 52 49 115 107 63 57 115 106 115 110 0 3 -55 12 -122
19 -206 20 -182 6 -244 140 -30 64 -60 130 -68 146 l-14 30 -36 -80z m91 -144
l50 -108 90 -12 c49 -6 101 -11 116 -11 14 0 28 -4 31 -8 3 -5 -35 -45 -83
-90 l-89 -81 24 -117 c13 -65 22 -119 20 -121 -2 -2 -51 24 -108 57 l-106 60
-96 -55 c-53 -31 -102 -58 -110 -61 -11 -4 -8 21 12 116 l26 122 -87 80 c-48
44 -87 83 -87 87 0 5 33 11 73 15 39 3 93 9 119 12 l46 6 49 109 c26 60 51
109 54 109 3 0 28 -49 56 -109z"/>
<path d="M1164 7585 c-3 -8 -3 -18 -1 -23 3 -4 62 -50 132 -101 119 -88 127
-92 140 -75 8 11 15 21 15 24 0 11 -248 190 -264 190 -9 0 -19 -7 -22 -15z"/>
<path d="M2775 7511 c-66 -49 -121 -93 -122 -98 -2 -5 3 -17 10 -27 13 -18 22
-13 146 79 89 65 131 103 129 114 -7 35 -45 19 -163 -68z"/>
<path d="M343 7514 c-3 -8 -2 -19 3 -24 5 -4 225 -80 488 -169 485 -164 502
-168 493 -122 -2 15 -912 329 -955 330 -12 1 -25 -6 -29 -15z"/>
<path d="M3515 7464 c-746 -251 -755 -255 -743 -278 6 -11 12 -22 13 -24 5 -5
960 322 967 331 11 17 -3 37 -26 36 -11 0 -106 -29 -211 -65z"/>
<path d="M13470 4941 c0 -2356 -3 -2237 55 -2418 55 -173 139 -307 285 -454
135 -136 244 -208 430 -284 65 -26 209 -65 243 -65 17 0 17 102 14 2192 l-3
2193 -22 88 c-95 385 -359 685 -731 833 -47 19 -117 41 -155 50 -39 8 -79 20
-88 25 -10 5 -20 9 -23 9 -3 0 -5 -976 -5 -2169z"/>
<path d="M954 6945 c-12 -31 7 -35 167 -35 l159 0 0 25 0 25 -160 0 c-131 0
-162 -3 -166 -15z"/>
<path d="M2820 6935 l0 -25 159 0 c136 0 160 2 165 16 3 9 4 20 0 25 -3 5 -77
9 -165 9 l-159 0 0 -25z"/>
<path d="M985 6599 c-171 -60 -383 -134 -472 -165 -134 -46 -163 -60 -163 -75
0 -11 6 -22 13 -25 10 -4 940 309 956 322 6 5 -9 54 -17 53 -4 -1 -146 -50
-317 -110z"/>
<path d="M2781 6687 c-5 -12 -6 -25 -2 -28 14 -14 945 -330 957 -325 12 4 21
46 11 46 -2 0 -102 34 -223 76 -780 270 -734 256 -743 231z"/>
<path d="M1277 6395 c-88 -66 -127 -101 -127 -115 0 -46 44 -20 288 166 5 3
-22 44 -29 44 -3 0 -63 -43 -132 -95z"/>
<path d="M2672 6469 c-7 -11 -12 -22 -10 -23 244 -186 288 -211 288 -166 0 13
-38 48 -120 110 -66 50 -126 93 -133 95 -6 3 -18 -4 -25 -16z"/>
<path d="M1276 5924 c-159 -212 -291 -394 -293 -405 -6 -23 21 -36 41 -20 8 7
143 185 301 397 238 319 285 387 275 399 -7 8 -18 15 -24 15 -7 0 -141 -174
-300 -386z"/>
<path d="M2500 6296 c-10 -13 9 -45 127 -203 420 -568 448 -603 468 -600 13 1
20 9 19 22 -1 23 -569 788 -588 793 -7 2 -19 -4 -26 -12z"/>
<path d="M1725 6059 c-49 -145 -52 -174 -21 -174 16 0 28 26 67 144 27 79 46
147 44 151 -3 4 -14 10 -24 13 -18 4 -25 -11 -66 -134z"/>
<path d="M2303 6190 c-13 -5 -23 -13 -23 -17 1 -4 23 -71 49 -148 39 -113 52
-140 67 -140 10 0 20 8 22 18 3 14 -85 299 -91 296 -1 0 -12 -4 -24 -9z"/>
<path d="M2020 5795 l0 -345 30 0 30 0 0 345 0 345 -30 0 -30 0 0 -345z"/>
<path d="M10335 5763 c-93 -13 -272 -60 -361 -94 -115 -45 -278 -139 -376
-217 -288 -229 -489 -576 -543 -936 -12 -86 -15 -232 -15 -879 0 -722 1 -783
19 -889 38 -216 129 -427 262 -604 199 -265 486 -449 809 -520 79 -18 142 -19
930 -19 788 0 851 1 930 19 121 26 241 70 349 128 147 77 207 122 337 252 200
199 308 388 381 666 l27 105 4 810 c3 858 2 897 -44 1078 -72 286 -218 534
-436 743 -166 159 -361 269 -576 327 l-117 32 -775 1 c-426 1 -788 -1 -805 -3z
m1545 -1079 c79 -38 141 -98 183 -179 l32 -60 0 -760 0 -760 -29 -58 c-43 -84
-136 -169 -217 -196 -62 -21 -75 -21 -784 -21 -697 0 -724 1 -780 20 -96 33
-182 112 -229 210 -21 44 -21 54 -24 780 -3 727 -3 736 19 802 35 109 136 207
252 244 34 10 189 13 777 11 l735 -2 65 -31z"/>
<path d="M22045 5755 c-115 -21 -195 -45 -285 -83 -449 -191 -800 -643 -887
-1142 -17 -97 -18 -181 -18 -1070 l0 -965 23 -92 c90 -356 326 -621 665 -747
67 -25 216 -56 269 -56 l28 0 2 1408 3 1408 37 76 c45 89 94 138 187 182 l66
31 745 0 745 0 57 -27 c83 -39 154 -109 194 -193 l34 -69 0 -881 c0 -937 4
-1037 47 -1185 117 -405 472 -705 882 -746 l72 -7 -4 1414 c-3 1410 -3 1414
-25 1529 -43 225 -122 419 -248 607 -191 287 -470 495 -784 585 l-115 32 -810
2 c-634 2 -825 0 -880 -11z"/>
<path d="M17959 5730 c-383 -69 -743 -332 -961 -704 -48 -81 -138 -282 -138
-308 0 -17 66 -18 1148 -20 l1147 -3 62 -29 c76 -35 153 -113 191 -193 25 -54
27 -69 30 -215 l4 -158 -1089 0 c-722 0 -1109 -4 -1149 -11 -403 -71 -702
-342 -800 -724 -25 -97 -25 -107 -21 -355 4 -230 7 -265 30 -360 66 -273 198
-503 400 -697 186 -178 417 -300 652 -346 185 -36 248 -39 990 -35 707 4 734
5 843 26 568 112 996 535 1109 1097 17 83 18 158 18 925 0 930 2 895 -71 1121
-144 447 -486 807 -899 947 -163 55 -166 55 -800 58 -542 3 -599 1 -696 -16z
m1481 -2670 c0 -103 -4 -132 -26 -200 -44 -131 -146 -237 -283 -292 l-56 -23
-680 -3 c-608 -2 -685 -1 -730 14 -105 34 -200 132 -258 266 -29 68 -32 82
-35 216 l-4 142 1036 0 1036 0 0 -120z"/>
<path d="M5766 5699 c-32 -5 -100 -20 -151 -33 -254 -68 -456 -187 -641 -377
-185 -193 -284 -382 -365 -704 -17 -69 -25 -1565 -9 -1710 36 -322 181 -611
421 -840 184 -175 394 -286 664 -351 62 -15 163 -18 881 -21 692 -3 825 -2
913 11 274 41 534 169 746 367 89 84 213 252 270 366 60 120 98 232 82 238 -7
3 -620 6 -1362 7 l-1350 3 -66 32 c-80 40 -150 111 -187 191 -25 53 -27 66
-27 202 l0 145 1528 3 1528 2 -4 668 c-4 703 -3 683 -53 846 -114 369 -377
671 -728 837 -101 47 -153 65 -301 102 -77 20 -113 21 -905 23 -454 1 -851 -2
-884 -7z m1669 -1013 c76 -38 149 -110 183 -184 25 -53 27 -68 30 -209 l3
-153 -1036 0 -1037 0 4 148 c3 133 6 152 30 204 46 100 138 181 241 214 34 10
189 13 782 11 l740 -2 60 -29z"/>
<path d="M14990 4182 c0 -1620 -3 -1547 62 -1717 146 -381 499 -666 921 -741
l37 -6 0 1458 c0 954 -4 1482 -10 1524 -57 353 -295 663 -642 833 -104 51
-236 96 -330 113 l-38 6 0 -1470z"/>
<path d="M5 5397 c-3 -7 -4 -1119 -2 -2472 3 -2743 -3 -2515 72 -2673 65 -138
173 -221 318 -243 36 -6 386 -8 847 -7 l785 3 -70 35 -70 35 -750 5 c-826 6
-782 2 -878 69 -50 34 -109 115 -132 181 -46 130 -45 45 -45 2596 l0 2404
1970 0 1970 0 -3 -2432 c-2 -2209 -4 -2438 -19 -2485 -47 -151 -123 -250 -231
-299 l-62 -29 -735 -5 c-793 -6 -784 -5 -865 -60 l-30 -20 786 0 c481 0 807 4
840 10 189 35 330 183 372 390 24 116 27 621 20 2936 l-6 2074 -2039 0 c-1636
0 -2040 -3 -2043 -13z"/>
<path d="M210 3980 l0 -1220 613 0 612 0 -3 -55 -4 -55 -609 0 -609 0 2 -1087
3 -1088 23 -58 c35 -85 79 -137 147 -172 l59 -30 700 -6 c697 -6 726 -7 809
-42 l37 -16 0 955 0 954 55 0 55 0 0 -956 c0 -907 1 -956 18 -949 129 54 67
49 832 55 692 5 706 5 751 26 55 26 112 80 140 135 48 96 49 103 49 1226 l0
1053 -612 2 -613 3 -3 53 -3 52 615 0 616 0 0 1220 0 1220 -895 0 -895 0 0
-945 0 -945 -32 0 c-18 0 -43 -3 -55 -6 l-23 -6 0 951 0 951 -890 0 -890 0 0
-1220z m1740 240 l0 -939 -69 -21 c-226 -67 -377 -209 -426 -399 l-11 -46
-597 -3 -597 -2 0 1175 0 1175 850 0 850 0 0 -940z m1900 -235 l0 -1175 -598
0 -598 0 -13 51 c-49 190 -223 370 -416 430 l-75 24 0 922 0 923 850 0 850 0
0 -1175z m-1797 -731 c-7 -18 14 -35 34 -27 16 6 17 30 1 36 -7 3 7 6 32 6 25
0 75 -10 111 -23 182 -64 339 -241 379 -427 18 -83 8 -259 -18 -333 -120 -333
-489 -480 -807 -321 -93 46 -153 100 -214 191 -72 108 -96 190 -95 329 1 92 5
123 28 189 63 184 199 307 389 351 59 14 63 13 81 -5 22 -22 24 -21 -59 -40
-163 -38 -297 -161 -345 -318 -65 -209 -16 -410 133 -549 147 -135 342 -176
519 -109 213 80 328 247 328 476 0 211 -98 375 -275 462 -79 39 -81 39 -164
32 -80 -6 -83 -6 -77 13 4 12 -1 30 -14 46 -19 24 -19 26 -3 30 35 9 42 7 36
-9z m-56 -116 c18 -7 33 -14 33 -18 -1 -14 -386 -643 -395 -644 -16 -2 -46 95
-52 164 -6 79 16 193 52 267 49 100 159 198 258 228 54 17 63 18 104 3z m259
-32 c119 -60 197 -152 236 -279 17 -57 20 -86 16 -170 -5 -93 -28 -188 -47
-187 -7 1 -384 627 -389 646 -3 12 24 20 84 23 18 0 60 -13 100 -33z m-104
-208 c54 -89 96 -163 95 -165 -2 -1 -31 7 -66 17 -82 26 -197 26 -271 0 -30
-10 -56 -17 -58 -16 -4 5 190 326 197 326 3 0 50 -73 103 -162z m-23 -178 c46
-24 26 -126 -30 -155 -36 -19 -63 -19 -99 0 -55 28 -75 108 -39 152 13 15 140
18 168 3z m-226 -45 c-3 -13 0 -38 5 -55 13 -36 12 -36 -31 -7 -19 12 -43 27
-53 33 -17 10 -15 13 21 32 53 28 63 27 58 -3z m349 4 c44 -23 44 -24 -24 -62
l-46 -27 9 35 c6 20 7 45 4 55 -8 26 5 25 57 -1z m-371 -119 c51 -36 116 -53
187 -48 58 4 97 20 204 82 l46 27 46 -76 c25 -42 46 -78 46 -80 0 -3 -162 -5
-360 -5 -198 0 -360 3 -360 6 0 7 66 120 83 141 10 14 44 0 108 -47z m-433
-17 c24 -126 105 -259 212 -348 55 -47 165 -100 236 -116 l54 -12 0 -928 0
-927 -47 16 c-42 14 -138 17 -748 22 -670 5 -702 6 -740 25 -57 28 -111 88
-137 153 l-23 57 -3 1063 -3 1062 593 0 593 0 13 -67z m2402 -955 c0 -1088 -1
-1102 -48 -1195 -25 -49 -66 -89 -117 -117 -40 -21 -48 -21 -740 -26 -610 -5
-706 -8 -747 -22 l-48 -16 0 927 0 928 54 12 c211 47 391 233 443 459 l17 72
593 0 593 0 0 -1022z m-1442 790 c-105 -127 -302 -194 -455 -154 -35 8 -86 27
-115 42 -50 25 -168 128 -168 146 0 4 174 8 386 8 l387 0 -35 -42z"/>
<path d="M1036 5098 c-3 -13 -15 -106 -26 -208 -11 -101 -22 -186 -24 -188 -7
-6 -380 -52 -427 -52 -33 0 -51 5 -64 20 -10 11 -28 20 -41 20 -19 0 -25 -8
-34 -41 -17 -62 -10 -69 65 -69 l65 0 -1 -47 c0 -34 -31 -139 -103 -348 -89
-262 -105 -300 -124 -303 -26 -4 -27 -10 -6 -42 31 -47 89 -102 129 -123 55
-30 189 -30 256 0 54 25 116 83 134 127 13 29 12 31 -8 36 -19 5 -38 51 -129
315 -71 204 -107 322 -105 345 l2 35 184 3 c102 1 187 -1 191 -5 4 -5 1 -71
-6 -148 -8 -85 -13 -309 -13 -572 l-1 -432 -77 -3 c-44 -2 -78 -8 -80 -14 -2
-6 35 -37 82 -70 l85 -59 0 -137 c0 -128 -1 -138 -21 -152 -29 -20 -28 -64 1
-88 18 -15 41 -18 126 -18 91 0 107 3 124 20 26 26 25 55 -2 82 -21 21 -23 34
-26 158 l-4 136 87 57 c47 32 85 63 82 70 -2 8 -33 13 -84 15 l-81 3 -6 507
c-3 279 -9 537 -13 575 l-8 67 192 0 193 0 0 -31 c0 -28 -187 -595 -212 -641
-5 -10 -18 -18 -29 -18 -19 0 -19 0 0 -38 24 -47 88 -106 138 -127 51 -22 149
-30 198 -16 63 17 132 66 165 118 35 55 37 63 11 63 -23 0 -18 -12 -141 350
-50 147 -90 281 -90 302 l0 37 68 3 67 3 -3 44 c-5 74 -30 89 -80 46 -28 -24
-32 -24 -113 -15 -136 16 -371 48 -374 52 -2 2 -14 95 -27 208 -20 174 -26
205 -40 208 -11 2 -19 -5 -22 -20z m83 -1255 c1 -404 0 -423 -17 -423 -18 0
-19 17 -25 278 -4 152 -6 471 -6 707 l1 430 24 -285 c19 -237 23 -357 23 -707z
m-79 272 l0 -695 -25 0 -25 0 0 423 c1 232 5 469 10 527 5 58 14 180 21 273 7
92 14 167 16 167 1 0 3 -313 3 -695z m-60 525 c0 -19 -6 -20 -147 -19 -163 2
-162 3 12 23 66 8 123 14 128 15 4 0 7 -8 7 -19z m458 -24 c3 -3 -65 -6 -151
-6 l-157 0 0 23 0 24 151 -18 c83 -10 154 -20 157 -23z m-953 14 c3 -5 -1 -10
-9 -10 -9 0 -16 5 -16 10 0 6 4 10 9 10 6 0 13 -4 16 -10z m1165 -5 c0 -9 -9
-15 -22 -15 -22 1 -23 1 -4 15 25 19 26 19 26 0z m-970 -491 c44 -131 80 -242
80 -247 0 -4 -37 -7 -82 -5 l-83 3 -3 249 c-1 137 0 247 3 244 3 -3 41 -113
85 -244z m840 -4 l0 -250 -86 0 c-70 0 -85 3 -81 14 3 8 40 120 82 250 42 130
78 236 80 236 3 0 5 -112 5 -250z m200 -237 c0 -9 -23 -13 -80 -13 l-80 0 0
253 1 252 79 -240 c44 -132 80 -246 80 -252z m-1170 232 l0 -245 -80 0 c-44 0
-80 3 -80 7 0 12 153 483 157 483 2 0 3 -110 3 -245z m230 -294 c0 -19 -77
-72 -124 -86 -92 -28 -168 -15 -237 38 -74 56 -72 57 155 57 120 0 206 -4 206
-9z m949 -17 c-13 -14 -44 -38 -69 -52 -38 -23 -57 -27 -120 -27 -65 0 -82 4
-129 31 -30 17 -61 40 -69 52 l-14 22 213 0 212 0 -24 -26z m-499 -437 c0 -2
-24 -20 -53 -40 -48 -33 -60 -37 -119 -37 -57 0 -71 4 -109 31 -24 17 -48 35
-53 40 -6 5 64 9 162 9 95 0 172 -2 172 -3z m-110 -216 c0 -54 3 -113 6 -130
l7 -31 -67 0 -66 0 0 130 0 130 60 0 60 0 0 -99z m45 -221 c0 -12 -18 -16 -94
-18 -92 -3 -120 5 -106 27 4 8 40 11 103 9 78 -2 97 -6 97 -18z"/>
<path d="M2441 4980 c-18 -4 -44 -13 -56 -20 -19 -10 -29 -9 -56 4 -60 30 -86
10 -28 -22 17 -9 45 -27 63 -39 135 -95 173 -116 222 -122 59 -8 115 -45 139
-91 18 -34 19 -128 1 -185 l-12 -40 -21 35 c-26 42 -90 104 -117 114 -38 13
-133 -119 -120 -169 7 -30 38 -49 65 -42 23 6 32 -2 82 -75 l38 -55 -26 -76
c-28 -85 -33 -182 -11 -225 40 -77 113 -113 243 -120 l93 -5 74 -105 74 -105
-20 -46 c-68 -158 -2 -261 159 -248 l63 5 55 -78 c39 -56 55 -88 55 -112 1
-77 57 -168 118 -195 21 -9 51 -23 69 -31 40 -20 79 -5 89 33 5 21 -9 48 -75
148 -77 117 -80 124 -71 157 36 126 -16 210 -130 210 -39 0 -41 2 -96 85 l-57
85 22 65 c60 184 -3 279 -200 300 l-64 7 -88 133 -89 134 27 67 c48 121 59
166 59 259 1 74 -3 99 -23 142 -45 102 -169 187 -317 218 -76 16 -84 16 -133
5z m79 -40 c17 -5 19 -8 8 -9 -26 -1 -22 -30 5 -40 42 -16 67 16 30 38 -25 15
-15 13 48 -5 76 -23 124 -49 176 -97 58 -53 84 -107 91 -183 6 -81 -8 -137
-81 -324 -33 -85 -62 -175 -64 -200 -5 -58 23 -105 77 -129 23 -10 53 -36 71
-61 l31 -43 -76 6 c-141 10 -209 66 -208 171 0 38 17 97 63 221 76 209 89 255
89 325 0 111 -70 191 -183 210 -42 7 -74 21 -119 52 -34 24 -61 48 -60 53 2
20 60 28 102 15z m95 -406 c18 -20 44 -55 56 -79 21 -40 22 -45 8 -81 -8 -22
-17 -39 -20 -39 -3 0 -26 25 -51 55 -39 47 -49 55 -76 53 -37 -3 -47 9 -31 39
20 39 59 88 71 88 6 0 25 -16 43 -36z m360 -545 c143 -218 157 -243 149 -267
-5 -15 -14 -26 -19 -26 -6 1 -81 103 -168 227 l-158 226 12 40 c7 23 15 41 19
41 4 0 79 -108 165 -241z m173 -31 c27 -7 53 -23 73 -46 29 -33 31 -39 27 -96
-3 -38 -18 -96 -41 -153 -50 -124 -55 -161 -27 -196 12 -15 26 -27 32 -27 13
0 47 -43 41 -52 -9 -16 -98 -8 -130 12 -58 35 -56 88 9 240 50 116 55 175 19
214 -14 14 -30 26 -38 26 -13 0 -73 75 -73 91 0 9 39 4 108 -13z m184 -513
c69 -107 83 -135 78 -159 -5 -27 -11 -20 -99 105 -51 73 -95 139 -98 146 -3 7
-2 25 2 40 8 34 12 30 117 -132z m151 -36 c21 -26 22 -76 2 -149 -22 -82 -19
-139 10 -196 31 -61 31 -63 0 -34 -43 40 -59 100 -50 183 15 138 13 156 -23
185 -18 15 -32 31 -32 36 0 16 75 -3 93 -25z m152 -439 c-12 -20 -31 -9 -56
33 -43 68 -69 125 -69 149 0 16 19 -6 65 -75 36 -54 63 -102 60 -107z"/>
<path d="M1999 2686 c-10 -20 -9 -30 5 -51 33 -50 110 -14 90 43 -8 22 -16 28
-47 30 -31 3 -39 -1 -48 -22z"/>
<path d="M568 2436 c-28 -56 -46 -66 -123 -66 l-32 0 48 -48 c47 -47 48 -49
39 -87 -5 -22 -10 -50 -10 -63 l0 -23 54 31 55 31 57 -32 57 -33 -7 35 c-21
97 -22 93 30 142 l49 47 -36 0 c-79 0 -95 9 -120 62 -13 27 -26 51 -29 53 -4
2 -18 -20 -32 -49z m62 -88 c0 -5 11 -8 25 -8 31 0 32 -14 4 -34 -17 -11 -20
-20 -14 -45 7 -31 6 -31 -19 -20 -20 9 -32 9 -51 1 -36 -17 -37 -16 -30 16 4
21 1 33 -15 47 -27 24 -25 35 4 35 17 0 31 10 43 30 l18 30 17 -22 c10 -13 18
-26 18 -30z"/>
<path d="M802 2153 c-13 -20 -19 -39 -15 -43 57 -50 253 -200 262 -200 6 0 11
8 11 18 0 10 -51 57 -125 116 -69 55 -123 101 -121 104 3 2 117 -66 254 -152
137 -86 255 -156 261 -156 6 0 11 8 11 18 0 12 -76 65 -243 169 -134 84 -250
155 -258 157 -8 3 -23 -9 -37 -31z"/>
<path d="M751 2097 c-8 -11 22 -53 135 -191 133 -162 171 -196 168 -153 -1 15
-273 356 -285 356 -4 1 -12 -5 -18 -12z"/>
<path d="M711 2071 c-20 -13 125 -313 148 -309 9 2 16 8 16 14 0 14 -138 303
-145 303 -3 1 -11 -3 -19 -8z"/>
<path d="M663 2052 c-9 -5 17 -83 92 -281 57 -150 106 -276 109 -278 3 -3 12
-3 20 0 14 5 12 17 -13 84 -25 68 -158 418 -176 466 -8 19 -14 21 -32 9z"/>
<path d="M1233 1745 c-99 -30 -169 -91 -221 -188 -24 -47 -27 -62 -27 -152 0
-90 3 -105 28 -155 34 -66 67 -103 126 -141 l45 -29 -186 0 -186 0 -10 48 c-6
26 -25 121 -42 212 -35 184 -45 216 -71 231 -21 11 -63 3 -79 -16 -8 -10 -110
-423 -127 -517 -4 -23 4 -37 56 -88 l61 -60 440 0 439 0 3 -117 3 -118 42 -23
c23 -13 45 -32 48 -43 6 -18 37 -39 90 -59 l25 -10 0 280 0 280 -102 0 -101 0
39 29 c63 46 101 92 130 156 40 86 39 194 -1 283 -40 89 -123 164 -211 192
-75 23 -149 25 -211 5z m182 -36 l40 -11 -73 -25 -72 -24 -24 28 c-17 19 -21
30 -13 35 18 11 97 9 142 -3z m-166 -51 l23 -27 -69 -68 c-38 -37 -76 -79 -84
-92 l-14 -23 -38 22 c-20 12 -37 24 -37 26 0 18 54 105 82 131 41 39 101 75
108 65 3 -4 16 -19 29 -34z m261 -19 c0 -5 -20 -31 -44 -57 l-45 -47 -36 35
c-19 19 -34 39 -32 44 8 25 157 49 157 25z m57 -116 c-6 -85 -15 -93 -66 -57
-22 16 -41 33 -41 37 0 5 21 33 47 64 40 46 48 52 56 37 5 -9 7 -46 4 -81z
m-218 23 l44 -45 -72 -80 -73 -80 -53 42 -54 41 17 29 c17 30 127 137 140 137
5 0 27 -20 51 -44z m-669 -28 c12 -29 53 -238 48 -244 -2 -2 -13 20 -23 49
-10 28 -25 68 -33 87 l-14 35 -35 -88 c-20 -48 -37 -86 -39 -84 -6 6 48 241
59 255 14 18 26 15 37 -10z m966 -94 l7 -58 -34 21 c-19 11 -32 26 -30 34 3 8
9 38 15 68 l11 53 12 -31 c7 -16 16 -56 19 -87z m-167 9 l49 -37 -15 -29 c-8
-16 -41 -57 -74 -90 l-59 -61 -49 49 -50 48 20 26 c35 44 114 129 121 130 4 1
29 -16 57 -36z m-397 -34 c-2 -8 -9 -43 -16 -79 l-12 -64 -17 42 c-9 23 -17
67 -17 98 l0 56 33 -20 c17 -10 30 -25 29 -33z m96 -53 l43 -35 -55 -59 c-30
-33 -57 -58 -60 -54 -17 17 3 182 22 182 4 0 26 -16 50 -34z m446 -55 c-24
-58 -65 -111 -110 -142 -24 -16 -47 -29 -52 -29 -5 0 -21 15 -35 33 l-25 33
48 42 c27 23 63 64 81 92 l32 50 38 -22 38 -21 -15 -36z m-934 -41 c13 -36 34
-78 47 -93 13 -16 23 -32 23 -37 0 -5 3 -15 6 -24 5 -14 -8 -16 -110 -16 -109
0 -116 1 -116 20 0 10 13 34 28 52 16 18 42 66 57 106 16 40 31 69 35 65 4 -4
17 -37 30 -73z m602 -7 c21 -20 38 -40 38 -45 0 -12 -100 -38 -147 -38 l-44 0
53 60 c29 33 55 60 57 60 3 0 22 -17 43 -37z m98 -110 c16 -20 18 -28 8 -35
-19 -12 -107 -8 -153 6 l-40 13 55 12 c30 6 62 16 70 21 24 15 37 12 60 -17z
m260 -323 c0 -229 0 -231 -20 -220 -12 6 -26 22 -31 34 -6 13 -26 31 -45 39
l-34 17 0 125 0 125 -452 0 -451 0 -49 48 c-26 26 -48 50 -48 55 0 4 254 7
565 7 l565 0 0 -230z"/>
<path d="M2920 2302 c0 -4 9 -21 19 -39 l20 -31 -49 -49 c-54 -54 -75 -111
-65 -173 7 -40 11 -37 -128 -108 -18 -9 -45 -13 -73 -9 l-44 5 0 -34 c0 -32
-2 -33 -42 -36 l-43 -3 -3 -240 -2 -240 -97 -59 c-80 -49 -94 -61 -78 -67 11
-4 30 -8 43 -8 14 -1 22 -7 22 -18 0 -12 -36 -38 -113 -80 -123 -68 -119 -60
-39 -88 6 -2 12 -20 12 -40 0 -30 -6 -39 -41 -62 l-41 -27 449 -148 c246 -81
510 -168 586 -192 l137 -44 196 250 c107 137 199 260 204 274 12 31 13 134 1
153 -5 7 -37 18 -72 25 l-64 11 -5 52 c-3 28 -8 55 -12 58 -3 4 -34 9 -67 12
l-61 6 0 238 0 239 -40 0 c-39 0 -40 1 -40 34 l0 34 -47 -6 c-42 -4 -57 0
-129 39 -74 39 -83 47 -88 77 -3 19 -12 42 -20 51 -12 13 -14 25 -7 49 11 37
0 86 -26 114 -31 34 -153 98 -153 80z m135 -134 l19 -36 -23 -50 c-28 -60 -23
-87 15 -78 21 6 25 3 22 -10 -4 -24 -90 -45 -132 -31 -17 5 -37 11 -44 13 -36
9 -37 99 -1 144 18 23 20 24 30 8 14 -25 56 -23 69 3 6 11 8 34 5 51 -10 42
14 34 40 -14z m-122 -239 l37 -10 0 -293 0 -293 -67 15 c-65 13 -166 12 -235
-4 l-28 -6 0 256 0 256 33 0 c18 0 61 16 97 36 55 30 99 50 120 53 3 1 22 -4
43 -10z m263 -34 c52 -27 101 -45 121 -45 l33 0 0 -261 0 -261 -27 7 c-78 21
-228 21 -291 1 l-22 -7 2 293 3 293 35 12 c50 17 49 17 146 -32z m-596 -350
c0 -232 -1 -245 -19 -245 -15 0 -19 10 -25 53 -8 70 -8 422 1 430 3 4 15 7 25
7 17 0 18 -14 18 -245z m830 0 c0 -238 -1 -245 -20 -245 -19 0 -20 7 -20 245
0 238 1 245 20 245 19 0 20 -7 20 -245z m90 -242 c0 -5 -12 -16 -25 -26 -25
-18 -25 -18 -25 8 0 20 5 25 25 25 14 0 25 -3 25 -7z m-1010 -33 c0 -24 -13
-24 145 -1 178 26 501 26 673 1 68 -10 126 -20 128 -23 2 -2 -41 -45 -96 -96
l-100 -92 -397 86 c-219 47 -407 89 -417 94 -17 6 -15 9 15 29 42 27 49 27 49
2z m1060 -26 c0 -46 -1 -47 -140 -188 l-140 -141 1 60 1 60 136 127 c76 70
138 127 140 128 1 0 2 -21 2 -46z m-732 -134 c202 -44 377 -82 390 -85 20 -5
22 -11 22 -70 0 -55 -3 -65 -17 -64 -10 0 -191 46 -403 102 l-385 102 -3 48
c-3 38 0 47 13 47 9 0 182 -36 383 -80z m837 60 c5 -8 -333 -406 -343 -404
-32 5 -1039 289 -1046 295 -5 4 3 11 18 15 19 4 165 -30 497 -117 l470 -123
132 132 c73 73 147 151 166 175 30 37 39 42 68 39 18 -2 35 -8 38 -12z m45
-74 c0 -42 -9 -55 -166 -258 -91 -117 -172 -220 -180 -228 -12 -12 -14 -5 -14
52 l0 66 177 206 c98 113 179 206 180 206 2 0 3 -20 3 -44z m-897 -231 l497
-139 0 -82 0 -81 -507 167 -508 167 -3 58 c-2 44 0 56 10 53 7 -2 237 -67 511
-143z"/>
<path d="M2775 1785 c-33 -13 -70 -24 -82 -24 -16 -1 -23 -7 -23 -21 0 -26 25
-26 98 1 31 12 84 24 117 27 44 5 60 11 60 22 0 26 -100 23 -170 -5z"/>
<path d="M2865 1662 c-11 -2 -53 -14 -93 -28 -40 -13 -79 -24 -88 -24 -9 0
-14 -7 -12 -17 5 -23 55 -20 124 8 29 11 74 21 100 22 35 1 49 6 49 17 0 15
-46 28 -80 22z"/>
<path d="M2805 1499 c-27 -11 -68 -23 -90 -27 -26 -5 -41 -14 -43 -25 -5 -25
40 -22 128 9 50 17 84 24 106 19 39 -7 56 12 29 32 -26 18 -71 16 -130 -8z"/>
<path d="M3047 1803 c-21 -20 -4 -33 42 -33 28 0 78 -11 116 -25 72 -27 110
-29 110 -6 0 9 -18 20 -45 27 -25 6 -62 19 -82 28 -37 16 -129 22 -141 9z"/>
<path d="M3075 1660 c-17 -3 -31 -12 -33 -23 -3 -14 4 -17 45 -17 26 0 84 -12
127 -26 44 -13 85 -23 93 -20 18 7 16 36 -2 36 -9 0 -44 10 -78 21 -86 30
-117 36 -152 29z"/>
<path d="M3057 1513 c-10 -3 -17 -12 -15 -21 3 -13 13 -16 40 -14 20 1 65 -8
103 -23 75 -28 135 -33 135 -11 0 15 -21 26 -48 26 -9 0 -44 11 -77 25 -57 23
-97 29 -138 18z"/>
<path d="M20365 1350 c-269 -42 -454 -202 -522 -451 -26 -93 -23 -261 5 -362
31 -111 63 -167 138 -247 149 -158 327 -217 621 -208 171 6 250 26 270 68 17
37 44 233 34 243 -14 14 -31 -1 -31 -27 0 -31 -51 -108 -91 -138 -47 -35 -90
-48 -189 -55 -329 -23 -587 275 -554 642 18 203 87 339 210 411 128 75 391 65
513 -21 46 -31 87 -103 96 -168 5 -29 12 -46 19 -44 10 3 33 304 23 313 -2 2
-53 13 -113 24 -126 23 -342 33 -429 20z"/>
<path d="M4560 1325 c0 -11 11 -15 39 -15 53 0 87 -14 103 -42 9 -17 14 -127
18 -428 7 -456 11 -480 87 -590 81 -116 177 -161 358 -168 186 -7 284 26 386
128 57 57 84 107 111 208 19 69 21 116 27 464 7 437 3 416 85 425 30 4 46 10
46 19 0 12 -36 14 -210 12 -131 -2 -210 -7 -210 -13 -1 -5 23 -13 51 -17 33
-4 59 -14 73 -27 20 -21 21 -30 24 -369 5 -482 -10 -581 -96 -665 -60 -58
-123 -82 -217 -81 -164 0 -262 88 -300 270 -19 88 -22 772 -4 823 12 35 41 51
90 51 19 0 29 5 29 15 0 13 -34 15 -245 15 -211 0 -245 -2 -245 -15z"/>
<path d="M14463 1158 c-6 -7 -88 -215 -183 -463 -95 -247 -184 -471 -197 -496
-27 -50 -47 -64 -105 -74 -21 -3 -38 -10 -38 -15 0 -6 69 -10 170 -10 162 0
217 10 130 24 -66 10 -63 49 24 273 l22 58 151 3 c112 2 153 -1 160 -10 12
-14 113 -289 113 -305 0 -6 -7 -14 -16 -17 -8 -3 -12 -10 -9 -16 8 -13 332
-14 340 -1 3 6 -11 13 -32 16 -21 4 -49 12 -62 18 -51 25 -56 37 -307 690
-116 301 -140 351 -161 325z m51 -462 c31 -87 56 -160 56 -162 0 -2 -56 -4
-125 -4 -70 0 -125 4 -125 9 0 8 77 229 112 321 12 33 13 31 82 -164z"/>
<path d="M6069 1118 c0 -24 -4 -244 -8 -489 -8 -509 -5 -491 -86 -503 -25 -4
-43 -11 -40 -17 8 -12 365 -12 365 0 0 6 -20 13 -43 16 -88 13 -89 15 -99 355
-5 157 -7 306 -6 332 l3 48 132 -148 c214 -239 610 -638 621 -627 6 6 14 198
19 497 9 545 6 524 82 530 20 2 36 8 36 13 0 6 -63 10 -170 10 -103 0 -172 -4
-175 -10 -3 -6 15 -12 40 -15 59 -7 68 -14 79 -58 12 -48 25 -682 14 -681 -8
1 -172 175 -556 591 -97 106 -184 194 -192 196 -11 3 -15 -7 -16 -40z"/>
<path d="M11440 1147 c-68 -16 -109 -37 -149 -78 -53 -53 -66 -86 -66 -174 0
-117 28 -169 152 -282 186 -170 201 -187 219 -249 13 -46 14 -64 5 -94 -24
-79 -82 -120 -172 -120 -107 0 -182 67 -197 177 -4 27 -12 48 -17 48 -12 0
-30 -193 -21 -228 10 -40 87 -62 216 -62 99 0 110 2 172 33 111 54 158 133
158 262 0 131 -54 216 -228 358 -127 104 -157 146 -157 219 0 48 4 56 38 90
37 37 39 38 115 38 62 0 82 -4 103 -20 38 -28 66 -74 74 -117 4 -21 11 -38 15
-38 8 0 20 107 20 176 0 41 -1 42 -44 53 -72 18 -177 21 -236 8z"/>
<path d="M9695 1138 c-22 -5 -160 -7 -307 -6 -173 2 -269 -1 -270 -7 -2 -5 16
-11 39 -13 31 -2 48 -10 63 -29 19 -25 20 -38 19 -452 0 -489 0 -491 -66 -504
-102 -20 -31 -27 267 -27 l309 0 10 38 c13 50 18 156 8 162 -5 3 -16 -17 -25
-44 -23 -68 -59 -86 -169 -86 -87 0 -129 10 -149 38 -10 13 -13 68 -14 215 l0
199 115 -4 c129 -3 144 -11 154 -73 12 -70 26 -41 34 69 7 104 4 133 -11 110
-17 -26 -56 -34 -171 -34 l-121 0 0 185 0 185 105 0 c69 0 118 -5 140 -14 32
-14 38 -24 47 -79 2 -10 8 -19 13 -20 10 -2 28 139 23 178 -3 18 -7 20 -43 13z"/>
<path d="M18935 1139 c-22 -5 -159 -8 -304 -7 -204 2 -265 0 -268 -9 -3 -9 8
-13 35 -13 24 0 49 -7 63 -19 l24 -19 0 -449 c0 -333 -3 -453 -12 -469 -8 -14
-27 -24 -53 -28 -22 -3 -40 -11 -40 -16 0 -6 110 -10 304 -10 250 0 306 2 315
14 15 18 28 206 14 191 -5 -5 -17 -30 -26 -55 -22 -59 -46 -73 -139 -78 -93
-5 -143 3 -169 29 -18 18 -19 34 -19 219 l0 200 100 0 c134 0 170 -18 170 -85
0 -32 18 -42 24 -13 9 42 16 208 9 208 -3 0 -15 -8 -26 -17 -16 -15 -42 -19
-148 -21 l-129 -4 0 186 0 186 104 0 c56 0 117 -5 133 -10 32 -12 53 -45 53
-85 0 -31 18 -33 24 -2 10 48 17 187 9 186 -4 -1 -26 -5 -48 -10z"/>
<path d="M24825 1139 c-22 -5 -159 -8 -304 -7 -204 2 -265 0 -268 -9 -3 -9 8
-13 37 -13 30 0 47 -6 66 -25 l25 -25 -3 -443 c-2 -323 -6 -448 -15 -463 -8
-14 -27 -24 -53 -28 -22 -3 -40 -11 -40 -16 0 -6 112 -10 309 -10 299 0 310 1
316 20 9 30 23 163 17 177 -7 20 -19 6 -26 -31 -8 -42 -46 -82 -87 -90 -50
-10 -163 -7 -198 5 -17 6 -36 19 -41 29 -6 11 -10 106 -10 215 l0 197 115 -4
c129 -3 144 -10 154 -75 12 -70 26 -39 33 71 4 61 6 112 3 114 -2 2 -16 -5
-31 -17 -24 -19 -40 -21 -150 -21 l-124 0 0 185 0 185 104 0 c56 0 117 -5 133
-10 30 -11 53 -45 53 -80 0 -20 16 -36 23 -23 9 15 18 203 10 202 -4 -1 -26
-5 -48 -10z"/>
<path d="M7345 1132 c-10 -11 8 -22 36 -22 52 0 66 -26 74 -136 12 -151 -2
-780 -17 -812 -10 -20 -24 -29 -56 -35 -88 -17 -26 -27 173 -27 196 0 271 11
168 25 -69 9 -80 14 -89 33 -10 20 -18 841 -9 889 8 44 30 63 72 63 23 0 33 4
31 12 -4 10 -52 13 -192 14 -102 0 -188 -2 -191 -4z"/>
<path d="M7885 1132 c-13 -13 -3 -22 24 -22 40 0 75 -14 100 -41 12 -13 104
-233 206 -489 102 -257 192 -475 200 -486 12 -17 15 -17 29 -4 8 8 42 80 76
160 250 594 339 795 363 825 22 28 36 35 63 35 21 0 34 5 34 13 0 19 -311 18
-317 0 -3 -9 7 -13 30 -13 54 0 65 -21 43 -83 -29 -84 -247 -651 -256 -667 -8
-13 -9 -13 -14 0 -113 307 -246 676 -250 698 -8 34 6 49 49 54 17 1 30 8 30
13 0 10 -400 17 -410 7z"/>
<path d="M10066 1133 c-12 -13 7 -23 45 -23 26 0 46 -7 59 -20 20 -20 21 -29
18 -474 -2 -348 -6 -456 -16 -468 -7 -9 -30 -18 -52 -22 -22 -3 -40 -11 -40
-16 0 -13 397 -14 404 -1 7 10 -27 21 -65 21 -14 0 -34 9 -45 21 -17 19 -19
38 -19 198 l0 176 69 0 69 0 93 -135 c116 -169 204 -264 259 -279 50 -14 255
-15 255 -1 0 5 -12 12 -27 16 -107 23 -159 70 -342 308 l-114 148 56 56 c31
31 68 82 84 112 24 47 28 67 28 136 0 72 -3 86 -30 130 -38 60 -104 99 -195
113 -68 11 -484 14 -494 4z m471 -95 c64 -42 93 -111 93 -219 0 -75 -4 -94
-27 -139 -38 -71 -78 -93 -158 -86 -103 8 -95 -13 -95 240 0 123 3 226 8 230
4 4 37 6 73 4 51 -3 76 -10 106 -30z"/>
<path d="M12065 1131 c-13 -13 -2 -21 30 -21 22 0 43 -8 55 -20 19 -19 20 -33
20 -462 0 -335 -3 -449 -13 -468 -9 -17 -25 -27 -55 -33 -92 -18 -37 -27 167
-27 201 0 278 11 174 25 -76 10 -82 14 -93 53 -15 54 -14 863 2 897 11 23 21
29 71 37 10 2 17 7 15 13 -3 10 -363 16 -373 6z"/>
<path d="M12756 1132 c-12 -12 8 -22 43 -22 23 0 48 -8 62 -19 l24 -19 0 -444
c0 -503 2 -490 -75 -503 -87 -15 -19 -22 252 -29 323 -7 372 -1 496 60 177 87
275 260 274 484 0 151 -46 263 -145 358 -65 60 -114 87 -215 114 -69 18 -110
21 -394 23 -175 1 -320 0 -322 -3z m557 -77 c234 -61 364 -258 343 -521 -10
-131 -38 -208 -99 -269 -64 -63 -120 -91 -217 -106 -127 -19 -244 4 -273 55
-16 29 -24 805 -8 835 11 19 20 21 104 21 51 0 119 -7 150 -15z"/>
<path d="M15156 1132 c-12 -12 8 -22 44 -22 30 0 43 -6 59 -26 21 -26 21 -36
20 -453 0 -489 0 -491 -66 -504 -24 -4 -43 -12 -43 -16 0 -4 127 -11 283 -15
245 -6 292 -5 357 9 248 56 401 234 417 487 14 212 -73 386 -237 472 -116 61
-165 68 -517 71 -172 1 -315 0 -317 -3z m594 -88 c134 -45 238 -154 281 -296
18 -59 21 -87 17 -191 -3 -81 -11 -139 -23 -172 -55 -156 -177 -229 -380 -230
-103 0 -143 12 -176 51 -20 24 -27 828 -7 851 18 22 212 13 288 -13z"/>
<path d="M17016 1132 c-12 -12 8 -22 43 -22 23 0 48 -8 62 -19 l24 -19 0 -439
c0 -501 2 -489 -75 -509 -27 -7 -39 -14 -30 -17 8 -3 137 -8 285 -12 310 -7
370 0 493 61 96 47 170 121 216 216 48 100 59 161 54 293 -4 103 -7 117 -41
188 -66 139 -160 217 -314 258 -70 19 -109 22 -395 24 -175 1 -320 0 -322 -3z
m557 -77 c244 -63 374 -276 339 -555 -25 -205 -123 -311 -314 -341 -124 -19
-242 4 -270 53 -18 32 -26 822 -8 843 17 20 176 20 253 0z"/>
<path d="M21225 1132 c-14 -14 -1 -22 34 -22 23 0 48 -8 62 -19 l24 -19 0
-449 c0 -333 -3 -453 -12 -469 -8 -14 -27 -24 -53 -28 -22 -3 -40 -11 -40 -16
0 -6 78 -10 210 -10 127 0 210 4 210 10 0 5 -17 12 -37 15 -68 10 -87 19 -94
45 -4 14 -7 123 -8 243 l-1 217 258 -2 257 -3 -2 -217 c-2 -253 -5 -267 -71
-283 -24 -5 -40 -13 -36 -18 10 -10 412 -9 418 2 6 9 -40 21 -80 21 -15 0 -30
10 -41 27 -17 25 -18 63 -18 469 0 416 1 443 19 462 10 12 34 22 55 24 20 2
36 8 36 13 0 6 -73 10 -200 10 -123 0 -202 -4 -205 -10 -3 -6 16 -12 44 -16
30 -3 53 -12 62 -23 18 -25 26 -119 22 -261 l-3 -120 -257 -3 -258 -2 0 183
c0 209 4 224 68 229 20 2 37 8 37 13 0 10 -390 17 -400 7z"/>
<path d="M22645 1131 c-13 -12 -2 -21 28 -21 77 -1 77 2 76 -482 0 -486 0
-488 -66 -501 -93 -18 -38 -27 167 -27 127 0 210 4 210 10 0 5 -17 12 -37 15
-75 12 -84 16 -93 41 -6 15 -10 206 -10 463 0 483 -2 469 64 480 20 3 38 11
39 16 2 10 -369 16 -378 6z"/>
<path d="M23345 1132 c-11 -11 9 -22 41 -22 57 0 71 -24 79 -136 12 -156 -1
-778 -17 -811 -10 -21 -23 -29 -56 -36 -99 -19 -18 -27 289 -27 l319 0 10 25
c14 36 25 185 14 185 -5 0 -17 -22 -27 -49 -25 -73 -51 -85 -172 -86 -120 0
-149 7 -172 42 -16 24 -18 65 -21 418 -2 265 0 402 8 427 11 39 21 44 85 50
17 2 30 8 30 13 0 10 -400 16 -410 7z"/>
</g>
</svg>
